<?xml version="1.0" standalone="no"?>
<!DOCTYPE svg PUBLIC "-//W3C//DTD SVG 20010904//EN"
 "http://www.w3.org/TR/2001/REC-SVG-20010904/DTD/svg10.dtd">
<svg version="1.0" xmlns="http://www.w3.org/2000/svg"
 width="260.000000pt" height="260.000000pt" viewBox="0 0 260.000000 260.000000"
 preserveAspectRatio="xMidYMid meet">
<metadata>
Created by potrace 1.14, written by Peter Selinger 2001-2017
</metadata>
<g transform="translate(0.000000,260.000000) scale(0.100000,-0.100000)"
fill="#000000" stroke="none">
<path d="M1146 2590 c-232 -29 -442 -112 -620 -244 -114 -84 -187 -156 -270
-266 -120 -160 -197 -329 -236 -519 -28 -139 -28 -383 0 -522 103 -507 499
-901 1013 -1010 144 -31 370 -31 514 0 318 67 585 236 777 491 120 159 196
326 237 523 31 144 31 370 0 514 -109 515 -503 910 -1010 1013 -115 23 -305
33 -405 20z"/>
</g>
</svg>
